<svg width="22" height="22" viewBox="0 0 22 22" fill="none" xmlns="http://www.w3.org/2000/svg">
<path d="M19.9315 11.0295C20.0443 9.11146 19.5711 7.20443 18.5748 5.5615C17.5786 3.91857 16.1063 2.6174 14.3533 1.83064C12.6003 1.04388 10.6495 0.808721 8.75977 1.15637C6.87003 1.50402 5.13067 2.41803 3.77248 3.77714C2.41429 5.13625 1.50148 6.87621 1.15516 8.76613C0.808842 10.6561 1.04539 12.6066 1.83342 14.359C2.62145 16.1113 3.92371 17.5827 5.5674 18.5778C7.21109 19.5729 9.11851 20.0446 11.0366 19.9305M14.684 17.8421H21M17.842 14.6843V21M7.31544 8.3685H7.32596M13.6314 8.3685H13.6419M7.84177 13.6316C8.53442 14.3053 9.48391 14.6843 10.4734 14.6843C11.4629 14.6843 12.4124 14.3053 13.1051 13.6316" stroke="#6B7280" stroke-width="2" stroke-linecap="round" stroke-linejoin="round"/>
</svg>
