<svg width="22" height="21" viewBox="0 0 22 21" fill="none" xmlns="http://www.w3.org/2000/svg">
<path d="M7.23642 6.33797L0.856418 7.26297L0.743418 7.28597C0.572357 7.33138 0.416413 7.42138 0.29151 7.54677C0.166608 7.67216 0.0772217 7.82846 0.0324804 7.9997C-0.0122609 8.17093 -0.0107545 8.35098 0.0368458 8.52144C0.0844462 8.69191 0.176435 8.84668 0.303418 8.96997L4.92542 13.469L3.83542 19.824L3.82242 19.934C3.81195 20.1109 3.84868 20.2874 3.92887 20.4455C4.00905 20.6035 4.1298 20.7374 4.27875 20.8335C4.42771 20.9295 4.59951 20.9843 4.77657 20.9921C4.95363 20.9999 5.12958 20.9605 5.28642 20.878L10.9924 17.878L16.6854 20.878L16.7854 20.924C16.9505 20.989 17.1299 21.0089 17.3052 20.9817C17.4805 20.9545 17.6454 20.8812 17.783 20.7692C17.9206 20.6573 18.026 20.5107 18.0883 20.3446C18.1505 20.1785 18.1675 19.9988 18.1374 19.824L17.0464 13.469L21.6704 8.96897L21.7484 8.88397C21.8598 8.74674 21.9329 8.58242 21.9601 8.40776C21.9874 8.23311 21.9678 8.05435 21.9035 7.8897C21.8392 7.72505 21.7323 7.5804 21.5939 7.47048C21.4555 7.36056 21.2904 7.28931 21.1154 7.26397L14.7354 6.33797L11.8834 0.557969C11.8009 0.390504 11.6731 0.249484 11.5146 0.150874C11.3561 0.0522634 11.1731 0 10.9864 0C10.7997 0 10.6168 0.0522634 10.4582 0.150874C10.2997 0.249484 10.1719 0.390504 10.0894 0.557969L7.23642 6.33797Z" fill="#354052"/>
</svg>
